<!DOCTYPE svg PUBLIC "-//W3C//DTD SVG 20010904//EN" "http://www.w3.org/TR/2001/REC-SVG-20010904/DTD/svg10.dtd">
<svg version="1.0" xmlns="http://www.w3.org/2000/svg" width="582px" height="291px" viewBox="0 0 5820 2910" preserveAspectRatio="xMidYMid meet">
<g id="layer101" fill="#20365f" fill-rule="evenodd">
<path d="M2215 2855 L2220 2850 L2220 2845C2220 2842,2220 2837,2220 2835 L2220 2830L2225 2825 L2230 2820 L2230 2805L2230 2790L2235 2785 L2240 2780 L2245 2755C2247 2742,2250 2728,2250 2725 L2250 2720L2255 2715 L2260 2710 L2260 2695L2260 2680L2265 2675 L2270 2670 L2270 2665C2270 2662,2270 2657,2270 2655 L2270 2650L2275 2645 L2280 2640 L2280 2625L2280 2610L2285 2605 L2290 2600 L2295 2575C2297 2562,2300 2548,2300 2545 L2300 2540L2305 2535 L2310 2530 L2315 2505C2317 2491,2322 2468,2325 2455 L2330 2430L2335 2425 L2340 2420 L2340 2405L2340 2390L2345 2385 L2350 2380 L2350 2375C2350 2372,2350 2367,2350 2365 L2350 2360L2355 2355 L2360 2350 L2365 2325C2367 2312,2370 2298,2370 2295 L2370 2290L2375 2285 L2380 2280 L2380 2265L2380 2250L2385 2245 L2390 2240 L2395 2215C2397 2202,2400 2188,2400 2185 L2400 2180L2405 2175 L2410 2170 L2415 2145C2417 2132,2420 2118,2420 2115 L2420 2110L2425 2105 L2430 2100 L2430 2085L2430 2070L2435 2065 L2440 2060 L2445 2035C2447 2022,2450 2008,2450 2005 L2450 2000L2455 1995 L2460 1990 L2465 1965C2467 1952,2470 1938,2470 1935 L2470 1930L2475 1925 L2480 1920 L2480 1905L2480 1890L2485 1885 L2490 1880 L2495 1855C2497 1842,2500 1828,2500 1825 L2500 1820L2505 1815 L2510 1810 L2515 1785C2517 1772,2520 1758,2520 1755 L2520 1750L2525 1745 L2530 1740 L2530 1725L2530 1710L2535 1705 L2540 1700 L2540 1695C2540 1692,2540 1687,2540 1685 L2540 1680L2545 1675 L2550 1670 L2550 1655L2550 1640L2555 1635 L2560 1630 L2565 1605C2567 1592,2570 1578,2570 1575 L2570 1570L2575 1565 L2580 1560 L2580 1545L2580 1530L2585 1525 L2590 1520 L2595 1495C2597 1482,2600 1468,2600 1465 L2600 1460L2605 1455 L2610 1450 L2615 1425C2617 1412,2620 1398,2620 1395 L2620 1390L2625 1385 L2630 1380 L2630 1365L2630 1350L2635 1345 L2640 1340 L2640 1335C2640 1332,2640 1327,2640 1325 L2640 1320L2645 1315 L2650 1310 L2650 1295L2650 1280L2655 1275 L2660 1270 L2660 1255L2660 1240L2665 1235 L2670 1230 L2670 1225C2670 1222,2670 1217,2670 1215 L2670 1210L2675 1205 L2680 1200 L2685 1175C2687 1162,2690 1148,2690 1145 L2690 1140L2695 1135 L2700 1130 L2700 1115L2700 1100L2705 1095 L2710 1090 L2715 1065C2717 1052,2720 1038,2720 1035 L2720 1030L2725 1025 L2730 1020 L2730 1005L2730 990L2735 985 L2740 980 L2740 975C2740 972,2740 967,2740 965 L2740 960L2745 955 L2750 950 L2750 935L2750 920L2755 915 L2760 910 L2765 885C2767 872,2770 858,2770 855 L2770 850L2775 845 L2780 840 L2780 825L2780 810L2785 805 L2790 800 L2790 795C2790 792,2790 787,2790 785 L2790 780L2795 775 L2800 770 L2800 755L2800 740L2805 735 L2810 730 L2815 705C2817 692,2820 678,2820 675 L2820 670L2825 665 L2830 660 L2835 635C2837 622,2840 608,2840 605 L2840 600L2845 595 L2850 590 L2855 565C2857 552,2860 538,2860 535 L2860 530L2865 525 L2870 520 L2870 505L2870 490L2875 485 L2880 480 L2885 455C2887 442,2890 428,2890 425 L2890 420L2895 415 L2900 410 L2900 395L2900 380L2905 375 L2910 370 L2915 345C2917 332,2920 318,2920 315 L2920 310L2925 305 L2930 300 L2935 275C2937 262,2940 248,2940 245 L2940 240L2945 235 L2950 230 L2950 215L2950 200L2955 195 L2960 190 L2965 165C2967 152,2970 138,2970 135 L2970 130L2975 125 L2980 120 L2985 95C2987 82,2990 68,2990 65 L2990 60L2995 55 L3000 50 L3000 35L3000 20L3005 15 L3007 7 3010 5 L3015 5 L3020 10 L3020 25L3020 40L3015 45 L3010 50 L3010 55C3010 58,3007 72,3005 85 L3000 110L2995 115 L2990 120 L2990 135L2990 150L2985 155 L2980 160 L2980 165C2980 168,2977 182,2975 195 L2970 220L2965 225 L2960 230 L2960 235C2960 238,2957 252,2955 265 L2950 290L2945 295 L2940 300 L2940 315L2940 330L2935 335 L2930 340 L2930 345C2930 348,2927 362,2925 375 L2920 400L2915 405 L2910 410 L2910 415C2910 418,2907 432,2905 445 L2900 470L2895 475 L2890 480 L2890 495L2890 510L2885 515 L2880 520 L2880 535L2880 550L2875 555 L2870 560 L2870 565C2870 567,2870 572,2870 575 L2870 580L2865 585 L2860 590 L2860 595C2860 598,2857 612,2855 625 L2850 650L2845 655 L2840 660 L2840 675L2840 690L2835 695 L2830 700 L2830 705C2830 707,2830 712,2830 715 L2830 720L2825 725 L2820 730 L2820 745L2820 760L2815 765 L2810 770 L2810 775C2810 778,2807 792,2805 805 L2800 830L2795 835 L2790 840 L2790 855L2790 870L2785 875 L2780 880 L2780 885C2780 888,2777 902,2775 915 L2770 940L2765 945 L2760 950 L2760 955C2760 958,2757 972,2755 985 L2750 1010L2745 1015 L2740 1020 L2740 1035L2740 1050L2735 1055 L2730 1060 L2730 1065C2730 1068,2727 1082,2725 1095 L2720 1120L2715 1125 L2710 1130 L2710 1135C2710 1138,2707 1152,2705 1165 L2700 1190L2695 1195 L2690 1200 L2690 1205C2690 1208,2687 1222,2685 1235 L2680 1260L2675 1265 L2670 1270 L2670 1285L2670 1300L2665 1305 L2660 1310 L2660 1315C2660 1318,2657 1332,2655 1345 L2650 1370L2645 1375 L2640 1380 L2640 1395L2640 1410L2635 1415 L2630 1420 L2630 1425C2630 1427,2630 1432,2630 1435 L2630 1440L2625 1445 L2620 1450 L2620 1465L2620 1480L2615 1485 L2610 1490 L2610 1495C2610 1498,2607 1512,2605 1525 L2600 1550L2595 1555 L2590 1560 L2590 1575L2590 1590L2585 1595 L2580 1600 L2580 1605C2580 1607,2580 1612,2580 1615 L2580 1620L2575 1625 L2570 1630 L2570 1645L2570 1660L2565 1665 L2560 1670 L2560 1675C2560 1678,2557 1692,2555 1705 L2550 1730L2545 1735 L2540 1740 L2540 1755L2540 1770L2535 1775 L2530 1780 L2530 1785C2530 1787,2530 1792,2530 1795 L2530 1800L2525 1805 L2520 1810 L2515 1835C2512 1848,2507 1871,2505 1885 L2500 1910L2495 1915 L2490 1920 L2490 1925C2490 1928,2487 1942,2485 1955 L2480 1980L2475 1985 L2470 1990 L2470 2005L2470 2020L2465 2025 L2460 2030 L2460 2035C2460 2038,2457 2052,2455 2065 L2450 2090L2445 2095 L2440 2100 L2440 2105C2440 2108,2437 2122,2435 2135 L2430 2160L2425 2165 L2420 2170 L2420 2185L2420 2200L2415 2205 L2410 2210 L2410 2215C2410 2218,2407 2232,2405 2245 L2400 2270L2395 2275 L2390 2280 L2390 2295L2390 2310L2385 2315 L2380 2320 L2380 2325C2380 2327,2380 2332,2380 2335 L2380 2340L2375 2345 L2370 2350 L2365 2375C2362 2388,2357 2411,2355 2425 L2350 2450L2345 2455 L2340 2460 L2340 2475L2340 2490L2335 2495 L2330 2500 L2330 2505C2330 2507,2330 2512,2330 2515 L2330 2520L2325 2525 L2320 2530 L2320 2545L2320 2560L2315 2565 L2310 2570 L2310 2575C2310 2577,2310 2582,2310 2585 L2310 2590L2305 2595 L2300 2600 L2300 2615L2300 2630L2295 2635 L2290 2640 L2290 2645C2290 2648,2287 2662,2285 2675 L2280 2700L2275 2705 L2270 2710 L2270 2715C2270 2718,2267 2732,2265 2745 L2260 2770L2255 2775 L2250 2780 L2250 2795L2250 2810L2245 2815 L2240 2820 L2240 2825C2240 2828,2237 2842,2235 2855 L2230 2880L2225 2885 L2220 2890 L2220 2895C2220 2897,2220 2902,2220 2905 L2220 2910L2210 2910 L2200 2910 L2200 2905C2200 2902,2200 2898,2201 2897 C2201 2896,2204 2887,2206 2877 L2210 2860" />
<path d="M5 1370 L0 1360 L0 1350 L4 1342C7 1338,23 1283,40 1220 C57 1156,73 1094,75 1082 L80 1060L85 1055 90 1050 L90 1040 L89 1033C89 1029,100 989,114 945 C127 901,145 835,154 800 C162 764,172 724,175 712 C182 690,179 690,121 690 C64 690,60 688,60 667 C61 655,69 618,78 585 L95 525 347 522 C592 519,600 520,600 539 C599 550,593 584,585 614 C577 645,568 674,564 680 C561 685,528 690,491 690 L424 690 372 887 C343 996,319 1088,319 1092 L320 1100L315 1105 L310 1110 L310 1118C310 1122,296 1175,279 1235 C262 1295,246 1352,243 1362 C240 1373,228 1380,209 1380 C193 1380,177 1380,175 1380 L170 1380L170 1380 L170 1375C170 1372,156 1370,140 1370 C123 1370,110 1372,110 1375 L110 1380L110 1380 L95 1380C86 1380,77 1380,75 1380 C72 1380,54 1380,35 1380 L0 1380" />
<path d="M405 1355 L400 1350 L399 1347C398 1346,396 1327,394 1305 C393 1283,393 1254,395 1242 L400 1220L405 1215 410 1210 L410 1200 L410 1193C410 1189,420 1149,434 1105 C447 1061,470 975,485 915 C500 854,521 786,532 763 C542 740,560 713,571 703 C589 687,613 684,760 681 C853 680,934 681,939 684 L950 690L955 695 L960 700 L965 727C968 742,970 758,970 762 L970 770L965 775 L960 780 L960 785C960 788,939 867,915 961 C890 1055,868 1134,866 1136 C864 1138,815 1139,758 1137 L653 1135 687 1010 C705 941,720 881,720 877 L720 870L725 865 L730 860 L730 854C730 851,722 849,713 851 C702 853,691 872,684 900 C677 924,659 995,642 1057 C625 1118,614 1171,617 1174 C620 1177,674 1180,736 1180 C838 1180,849 1181,849 1197 C848 1207,838 1251,826 1295 C805 1370,802 1375,774 1377 C758 1379,741 1380,737 1380 L730 1380L730 1380 L730 1375C730 1372,682 1370,625 1370 C567 1370,520 1372,520 1375 L520 1380L520 1380 L505 1380C496 1380,480 1380,469 1380 C457 1380,439 1375,429 1370 L410 1360" />
<path d="M955 985 L960 980 L960 967C960 960,966 937,974 915 C982 893,989 867,989 857 L990 840L995 835 L1000 830 L1000 825C1000 822,1007 790,1017 752 L1035 685 1236 682 C1415 679,1440 681,1455 696 C1468 709,1471 724,1466 759 C1463 784,1450 843,1436 890 C1423 936,1400 1020,1386 1075 C1371 1130,1359 1178,1359 1182 L1360 1190L1355 1195 L1350 1200 L1349 1212C1348 1219,1338 1258,1326 1300 C1304 1373,1303 1375,1269 1377 C1250 1379,1231 1380,1227 1380 L1220 1380L1220 1380 L1220 1375C1220 1372,1204 1370,1185 1370 C1165 1370,1150 1372,1150 1375 L1150 1380L1150 1380 L1145 1380C1142 1380,1131 1380,1121 1380 C1111 1380,1100 1377,1097 1374 C1094 1371,1097 1349,1105 1326 C1112 1303,1121 1270,1124 1252 L1130 1220L1135 1215 L1140 1210 L1140 1195L1140 1180L1145 1175 L1150 1170 L1155 1145C1157 1131,1162 1108,1165 1095 L1170 1070L1175 1065 L1180 1060 L1180 1045L1180 1030L1185 1025 L1190 1020 L1195 995C1197 982,1200 968,1200 965 L1200 960L1205 955 L1210 950 L1210 935L1210 920L1215 915 L1220 910 L1220 904C1220 901,1222 887,1226 874 C1230 856,1228 850,1216 850 C1207 850,1200 856,1200 865 L1200 880L1195 885 L1190 890 L1190 905L1190 920L1185 925 L1180 930 L1180 945L1180 960L1175 965 L1170 970 L1170 975C1170 977,1170 982,1170 985 L1170 990L1165 995 L1160 1000 L1160 1015L1160 1030L1155 1035 L1150 1040 L1150 1055L1150 1070L1145 1075 L1140 1080 L1140 1095L1140 1110L1135 1115 L1130 1120 L1130 1125C1130 1127,1130 1132,1130 1135 L1130 1140L1125 1145 L1120 1150 L1120 1165L1120 1180L1115 1185 L1110 1190 L1110 1205L1110 1220L1105 1225 L1100 1230 L1099 1237C1099 1241,1091 1274,1081 1310 C1065 1365,1059 1375,1039 1377 C1025 1379,1011 1380,1007 1380 L1000 1380L1000 1380 L1000 1375C1000 1372,979 1370,955 1370 C930 1370,910 1372,910 1375 L910 1380L910 1380 L905 1380C902 1380,888 1380,873 1380 C851 1380,848 1376,854 1357 C857 1345,871 1294,884 1245 C898 1195,918 1121,929 1080 C940 1038,949 1001,949 997 L950 990" />
<path d="M1435 1065 L1440 1060 L1440 1052C1440 1048,1451 1004,1465 955 C1479 905,1497 836,1505 802 L1520 740L1525 735 1530 730 L1530 720 L1529 712C1529 708,1532 699,1534 692 C1538 683,1588 680,1737 680 C1885 680,1940 683,1954 693 C1965 701,1972 719,1972 742 C1972 762,1965 800,1956 826 C1948 853,1918 960,1890 1065 C1862 1169,1840 1258,1840 1262 L1840 1270L1835 1275 L1830 1280 L1830 1285C1830 1288,1824 1311,1818 1335 C1807 1378,1806 1380,1768 1380 C1747 1380,1727 1380,1725 1380 L1720 1380L1720 1370 L1715 1370C1712 1370,1707 1370,1705 1370 L1700 1370L1700 1380 L1695 1380C1692 1380,1669 1380,1645 1380 C1608 1380,1600 1376,1600 1362 C1600 1352,1602 1334,1605 1322 L1610 1300L1615 1295 L1620 1290 L1620 1275L1620 1260L1625 1255 L1630 1250 L1635 1225C1637 1212,1640 1198,1640 1195 L1640 1190L1645 1185 L1650 1180 L1650 1165L1650 1150L1655 1145 L1660 1140 L1660 1125L1660 1110L1665 1105 L1670 1100 L1670 1095C1670 1092,1670 1087,1670 1085 L1670 1080L1675 1075 L1680 1070 L1680 1055L1680 1040L1685 1035 L1690 1030 L1690 1015L1690 1000L1695 995 L1700 990 L1705 965C1707 951,1712 928,1715 915 L1720 890L1725 885 L1730 880 L1730 875C1730 872,1730 865,1730 860 C1730 854,1725 850,1720 850 L1710 850L1705 855 L1700 860 L1700 875L1700 890L1695 895 L1690 900 L1690 905C1690 908,1687 922,1685 935 L1680 960L1675 965 L1670 970 L1670 985L1670 1000L1665 1005 L1660 1010 L1660 1025L1660 1040L1655 1045 L1650 1050 L1650 1055C1650 1057,1650 1062,1650 1065 L1650 1070L1645 1075 L1640 1080 L1640 1095L1640 1110L1635 1115 L1630 1120 L1630 1135L1630 1150L1625 1155 L1620 1160 L1620 1165C1620 1167,1620 1172,1620 1175 L1620 1180L1615 1185 1610 1190 L1610 1200 L1610 1205C1610 1207,1610 1212,1610 1215 L1610 1220L1605 1225 L1600 1230 L1600 1245L1600 1260L1595 1265 L1590 1270 L1590 1277C1590 1280,1584 1304,1577 1329 L1564 1375 1462 1377 C1365 1380,1360 1379,1360 1360 C1360 1349,1375 1283,1395 1212 C1414 1142,1430 1081,1430 1077 L1430 1070" />
<path d="M1915 1145 L1920 1140 L1920 1136C1920 1133,1931 1087,1946 1033 C1960 979,1974 922,1977 907 L1982 880 2091 880 C2191 880,2200 881,2196 897 C2193 907,2177 964,2161 1025 C2144 1085,2120 1178,2105 1232 C2091 1286,2080 1332,2080 1334 L2080 1340L2075 1345 L2070 1350 L2070 1355C2070 1359,2067 1365,2064 1370 C2061 1375,2014 1380,1959 1380 C1879 1380,1860 1377,1860 1365 C1860 1357,1871 1309,1884 1258 C1898 1206,1909 1161,1909 1157 L1910 1150" />
<path d="M2135 1295 L2140 1290 L2139 1282C2139 1278,2149 1237,2161 1192 L2183 1110 2287 1110 L2392 1110 2387 1142 C2384 1160,2378 1183,2374 1193 C2368 1207,2371 1211,2385 1208 C2395 1206,2406 1193,2410 1180 C2413 1166,2420 1138,2423 1117 L2430 1080 2315 1080 C2227 1080,2200 1076,2200 1067 C2200 1059,2211 1009,2225 954 C2239 899,2260 824,2271 787 C2284 743,2300 713,2317 699 C2340 681,2358 679,2530 680 C2686 680,2719 682,2730 695 C2740 707,2737 730,2713 822 L2684 935 2580 937 L2477 940 2483 900 L2490 860L2495 855 2495 855 L2490 850 L2485 850C2482 850,2477 850,2475 850 L2470 850L2465 855 L2460 860 L2455 890C2452 906,2447 933,2443 950 L2437 980 2553 980 C2617 980,2669 983,2669 987 C2669 991,2649 1069,2624 1159 C2595 1265,2571 1332,2558 1346 C2546 1359,2519 1371,2496 1374 C2473 1378,2451 1380,2447 1380 L2440 1380L2440 1380 L2440 1375C2440 1372,2386 1370,2320 1370 C2254 1370,2200 1372,2200 1375 L2200 1380L2200 1380 L2195 1380C2192 1380,2183 1380,2175 1380 C2167 1380,2154 1369,2145 1357 C2137 1345,2130 1327,2130 1317 L2130 1300" />
<path d="M2005 805 L2010 800 L2025 740L2040 680 2145 680 L2250 680 2244 707 C2240 722,2231 758,2223 787 L2208 840 2104 840 C2018 840,2000 837,2000 825 L2000 810" />
</g>
<g id="layer102" fill="#1298d5" fill-rule="evenodd">
<path d="M2470 2287 C2470 2280,2481 2234,2494 2185 C2507 2135,2534 2032,2554 1955 C2574 1878,2603 1770,2619 1715 C2634 1660,2657 1577,2670 1532 L2692 1450 2890 1450 C3112 1450,3136 1455,3145 1504 C3151 1536,3111 1709,3088 1753 C3064 1798,3028 1837,2995 1855 C2975 1866,2960 1876,2960 1879 C2960 1882,2973 1897,2989 1913 C3023 1946,3036 2003,3025 2077 C3016 2141,2984 2227,2954 2267 L2930 2300 2700 2300 C2522 2300,2470 2297,2470 2287 M2725 2126 C2738 2054,2777 1935,2789 1931 C2805 1926,2799 1975,2769 2086 C2756 2136,2745 2160,2735 2160 C2723 2160,2721 2152,2725 2126 M2830 1744 C2830 1741,2837 1710,2846 1674 C2856 1634,2867 1610,2876 1610 C2893 1610,2893 1607,2875 1685 C2864 1729,2855 1750,2845 1750 C2836 1750,2830 1747,2830 1744 " />
<path d="M3050 2288 C3028 2262,3038 2212,3134 1865 C3153 1799,3176 1712,3186 1672 L3204 1600 3307 1600 C3425 1600,3420 1593,3389 1702 C3378 1742,3367 1783,3364 1793 C3362 1803,3354 1819,3347 1827 C3337 1841,3337 1842,3350 1835 C3362 1827,3363 1828,3351 1843 C3343 1852,3339 1860,3342 1860 C3345 1860,3332 1917,3314 1987 C3274 2134,3275 2130,3295 2130 C3303 2130,3310 2123,3310 2115 C3310 2092,3372 1865,3380 1860 C3383 1857,3386 1848,3386 1840 C3386 1831,3399 1774,3415 1712 L3444 1600 3547 1600 C3626 1600,3650 1603,3650 1613 C3650 1625,3623 1729,3524 2100 C3502 2182,3478 2247,3464 2267 L3440 2300 3250 2300 C3114 2300,3057 2296,3050 2288 " />
<path d="M3569 2279 C3537 2247,3544 2194,3609 1960 C3627 1896,3651 1806,3664 1759 C3689 1663,3708 1628,3745 1611 C3761 1604,3832 1600,3934 1600 C4070 1600,4101 1602,4114 1615 C4135 1636,4134 1647,4099 1778 C4083 1841,4070 1894,4070 1896 C4070 1898,4022 1900,3964 1900 L3858 1900 3865 1857 C3876 1797,3876 1780,3865 1779 C3858 1779,3770 2082,3770 2106 C3770 2108,3776 2110,3783 2110 C3791 2110,3802 2091,3808 2065 L3820 2020 3926 2020 L4032 2020 4025 2057 C4021 2078,4012 2115,4004 2140 C3996 2164,3983 2210,3975 2242 L3960 2300 3775 2300 C3600 2300,3588 2298,3569 2279 " />
<path d="M4010 2294 C4010 2292,4019 2257,4030 2217 C4042 2177,4055 2126,4060 2102 C4065 2079,4073 2052,4078 2042 C4083 2033,4095 1993,4103 1955 C4112 1916,4127 1860,4135 1830 C4143 1799,4168 1705,4191 1620 C4213 1535,4233 1462,4236 1457 C4238 1453,4283 1450,4335 1450 C4441 1450,4438 1447,4415 1525 C4390 1608,4388 1606,4486 1606 C4564 1606,4574 1608,4591 1629 C4601 1641,4610 1658,4610 1666 C4610 1681,4572 1827,4492 2122 L4445 2299 4342 2299 C4265 2299,4241 2296,4244 2287 C4246 2280,4252 2254,4259 2230 C4265 2205,4292 2101,4320 2000 C4347 1898,4370 1811,4370 1807 C4370 1803,4363 1800,4355 1800 C4346 1800,4340 1802,4340 1804 C4340 1807,4320 1882,4295 1972 C4271 2061,4242 2172,4230 2217 L4210 2300 4110 2300 C4055 2300,4010 2297,4010 2294 " />
<path d="M4531 2292 C4509 2273,4510 2235,4535 2141 L4562 2041 4657 2038 C4709 2036,4756 2037,4762 2041 C4772 2047,4768 2075,4753 2115 C4748 2127,4751 2131,4764 2128 C4776 2126,4787 2108,4795 2075 C4816 1995,4822 2000,4695 2000 C4566 2000,4569 2002,4593 1927 C4601 1904,4613 1858,4620 1825 C4627 1792,4636 1760,4640 1755 C4644 1749,4650 1727,4654 1706 C4663 1653,4685 1623,4722 1610 C4739 1604,4826 1600,4920 1600 C5059 1600,5091 1602,5104 1615 C5123 1635,5124 1624,5091 1755 L5062 1865 4960 1867 L4858 1870 4865 1819 C4874 1753,4853 1754,4833 1820 C4808 1902,4805 1900,4935 1900 L5050 1900 5044 1927 C5040 1942,5019 2020,4998 2100 C4943 2299,4958 2288,4725 2295 C4623 2297,4536 2296,4531 2292 " />
<path d="M110 1380 L110 1375C110 1372,123 1370,140 1370 C156 1370,170 1372,170 1375 L170 1380L170 1380 L160 1380C154 1380,147 1380,145 1380 C142 1380,133 1380,125 1380 L110 1380" />
<path d="M520 1380 L520 1375C520 1372,567 1370,625 1370 C682 1370,730 1372,730 1375 L730 1380L730 1380 L685 1380C660 1380,637 1380,635 1380 C632 1380,605 1380,575 1380 L520 1380" />
<path d="M910 1380 L910 1375C910 1372,930 1370,955 1370 C979 1370,1000 1372,1000 1375 L1000 1380L1000 1380 L955 1380L910 1380" />
<path d="M1150 1380 L1150 1375C1150 1372,1165 1370,1185 1370 C1204 1370,1220 1372,1220 1375 L1220 1380L1220 1380 L1185 1380L1150 1380" />
<path d="M2200 1380 L2200 1375C2200 1372,2254 1370,2320 1370 C2386 1370,2440 1372,2440 1375 L2440 1380L2440 1380 L2320 1380L2200 1380" />
<path d="M2774 1369 C2723 1346,2726 1307,2809 1000 C2880 737,2884 725,2917 699 C2940 681,2958 680,3112 680 C3209 680,3289 684,3300 690 C3326 704,3325 730,3290 859 C3273 920,3260 972,3260 975 C3260 977,3210 980,3150 980 L3040 980 3055 932 C3072 877,3073 850,3060 850 C3051 850,3034 901,2994 1055 C2981 1104,2967 1155,2964 1167 C2959 1183,2961 1190,2971 1190 C2980 1190,2991 1170,2999 1140 L3011 1090 3115 1090 C3206 1090,3220 1092,3220 1106 C3220 1128,3158 1351,3148 1367 C3137 1383,2811 1385,2774 1369 " />
<path d="M3264 1374 C3255 1370,3244 1357,3239 1343 C3228 1313,3226 1276,3237 1283 C3241 1286,3245 1267,3246 1241 C3247 1191,3263 1112,3278 1082 C3283 1073,3299 1013,3315 950 C3352 793,3375 735,3411 705 C3440 680,3444 680,3601 680 C3692 680,3769 684,3780 690 C3806 704,3805 762,3779 855 C3768 893,3747 973,3732 1032 L3705 1140 3596 1140 C3502 1140,3488 1137,3493 1124 C3505 1093,3560 881,3560 865 C3560 857,3553 850,3545 850 C3537 850,3527 870,3519 902 C3512 931,3497 991,3484 1035 C3472 1079,3459 1129,3455 1147 L3448 1180 3570 1180 L3691 1180 3684 1210 C3659 1325,3642 1365,3616 1372 C3585 1381,3287 1382,3264 1374 " />
<path d="M3706 1372 C3695 1366,3697 1346,3718 1263 C3732 1207,3747 1163,3751 1166 C3756 1168,3760 1158,3760 1142 C3760 1126,3769 1080,3780 1039 C3792 998,3805 949,3809 930 C3836 819,3852 763,3860 747 C3865 738,3870 718,3870 705 L3870 680 4074 680 L4279 679 4295 705 C4314 733,4315 729,4266 915 C4183 1227,4147 1355,4140 1363 C4130 1373,3941 1380,3935 1371 C3933 1366,4015 1051,4065 872 C4070 856,4067 850,4057 850 C4048 850,4037 867,4030 897 C4023 923,4008 976,3997 1015 C3986 1053,3959 1149,3938 1227 L3900 1370 3810 1375 C3760 1377,3713 1376,3706 1372 " />
<path d="M4316 1372 C4314 1368,4332 1293,4356 1205 C4381 1117,4407 1018,4415 985 C4423 952,4433 917,4435 907 C4440 892,4433 890,4379 890 C4334 890,4319 886,4322 877 C4325 870,4337 825,4350 777 L4373 690 4435 690 L4497 690 4520 610 L4542 530 4647 529 L4751 529 4744 562 C4740 580,4731 613,4724 635 C4716 657,4710 678,4710 682 C4710 686,4739 690,4775 690 C4820 690,4839 693,4839 702 C4839 709,4829 753,4816 800 L4793 885 4722 887 L4652 890 4605 1067 C4522 1377,4527 1362,4497 1371 C4463 1382,4321 1382,4316 1372 " />
<path d="M4765 1366 C4734 1338,4732 1289,4757 1195 C4862 795,4876 751,4915 712 L4947 680 5109 680 C5201 680,5279 684,5290 690 C5314 703,5316 768,5295 832 C5288 855,5266 934,5248 1007 L5215 1140 5108 1140 L5001 1140 5010 1107 C5015 1089,5030 1031,5044 977 C5073 866,5075 850,5056 850 C5047 850,5034 881,5020 937 C5008 985,4989 1053,4979 1089 C4968 1124,4960 1159,4960 1166 C4960 1177,4986 1180,5081 1180 C5202 1180,5202 1180,5196 1202 C5192 1214,5182 1254,5173 1290 C5164 1325,5153 1360,5148 1367 C5136 1385,4785 1385,4765 1366 " />
<path d="M5820 690 L5820 725C5820 744,5820 762,5820 765 L5820 770L5820 770 L5815 772C5813 774,5799 819,5785 873 C5771 927,5760 973,5760 976 C5760 978,5712 980,5654 980 C5558 980,5549 978,5553 962 C5556 952,5563 925,5570 901 C5577 871,5578 854,5571 847 C5563 839,5557 845,5549 865 C5543 881,5525 944,5509 1005 C5493 1065,5465 1171,5447 1240 C5429 1308,5414 1366,5412 1368 C5411 1371,5363 1374,5305 1376 C5238 1379,5200 1376,5200 1370 C5200 1364,5208 1332,5219 1297 C5229 1263,5249 1190,5263 1135 C5277 1080,5304 974,5324 900 C5343 825,5367 750,5375 733 C5384 716,5402 697,5416 691 C5431 684,5510 680,5623 680 C5724 680,5809 682,5813 685 L5820 690" />
</g>
<g id="layer103" fill="#f8cc09" fill-rule="evenodd">
<path d="M1834 2319 C1639 2290,1482 2131,1456 1939 L1450 1893 1557 1893 C1650 1893,1675 1889,1740 1865 C1888 1809,1991 1716,2061 1572 C2083 1527,2104 1490,2107 1490 C2110 1490,2137 1508,2167 1531 C2227 1578,2267 1631,2308 1717 C2331 1767,2334 1787,2334 1875 C2334 1948,2330 1988,2316 2025 C2268 2152,2159 2259,2035 2298 C1945 2327,1910 2331,1834 2319 " />
<path d="M1494 1774 C1471 1769,1469 1764,1474 1741 C1484 1699,1538 1616,1589 1564 C1617 1534,1663 1503,1709 1481 C1776 1449,1795 1445,1883 1441 L1982 1437 1976 1470 C1958 1560,1850 1683,1747 1732 C1666 1771,1559 1788,1494 1774 " />
</g>
</svg>
