<?xml version="1.0" standalone="no"?>
<!DOCTYPE svg PUBLIC "-//W3C//DTD SVG 20010904//EN"
 "http://www.w3.org/TR/2001/REC-SVG-20010904/DTD/svg10.dtd">
<svg version="1.0" xmlns="http://www.w3.org/2000/svg"
 width="1164.000000pt" height="1164.000000pt" viewBox="0 0 1164.000000 1164.000000"
 preserveAspectRatio="xMidYMid meet">
<metadata>
Created by potrace 1.14, written by Peter Selinger 2001-2017
</metadata>
<g transform="translate(0.000000,1164.000000) scale(0.100000,-0.100000)"
fill="#000000" stroke="none">
<path d="M6012 8708 c-7 -7 -12 -27 -12 -44 0 -18 -4 -35 -9 -38 -5 -3 -12
-26 -16 -52 -11 -75 -14 -87 -24 -93 -5 -3 -12 -28 -16 -56 -4 -27 -14 -62
-21 -77 -8 -15 -14 -37 -14 -48 0 -12 -5 -31 -12 -43 -6 -12 -13 -35 -15 -51
-6 -55 -12 -79 -21 -85 -5 -3 -13 -26 -17 -51 -13 -79 -15 -85 -25 -88 -5 -2
-10 -16 -10 -30 0 -15 -7 -45 -14 -67 -8 -22 -16 -54 -19 -70 -2 -17 -11 -46
-19 -64 -9 -19 -13 -41 -10 -49 2 -8 0 -17 -6 -21 -5 -3 -13 -24 -16 -45 -9
-57 -17 -87 -32 -115 -8 -14 -14 -40 -14 -56 0 -17 -6 -39 -14 -50 -7 -11 -17
-40 -21 -65 -13 -79 -14 -83 -27 -91 -7 -5 -11 -23 -10 -44 2 -19 -1 -35 -6
-35 -10 0 -18 -30 -29 -102 -3 -21 -9 -38 -13 -38 -5 0 -11 -24 -15 -52 -4
-29 -12 -62 -18 -73 -17 -33 -26 -86 -13 -79 6 3 3 -1 -6 -9 -10 -8 -18 -26
-18 -41 0 -14 -4 -26 -10 -26 -5 0 -10 -15 -10 -34 0 -18 -7 -47 -15 -62 -8
-16 -15 -38 -15 -49 0 -11 -7 -42 -16 -70 -34 -106 -43 -141 -46 -170 -1 -16
-8 -39 -15 -50 -7 -11 -13 -30 -13 -42 0 -13 -4 -23 -9 -23 -6 0 -9 -8 -8 -19
0 -10 -5 -38 -12 -62 -7 -24 -21 -73 -31 -109 -10 -36 -26 -89 -34 -119 -9
-29 -16 -61 -16 -71 0 -10 -9 -37 -19 -61 -10 -24 -22 -65 -26 -91 -3 -27 -10
-48 -16 -48 -5 0 -9 -18 -9 -39 0 -22 -4 -41 -9 -43 -5 -1 -12 -21 -15 -43
-11 -73 -16 -90 -26 -93 -5 -2 -10 -16 -10 -30 0 -15 -9 -52 -20 -82 -11 -30
-20 -64 -20 -76 0 -12 -7 -35 -15 -50 -8 -16 -15 -42 -15 -57 0 -15 -7 -42
-16 -59 -9 -17 -18 -49 -21 -71 -2 -22 -11 -53 -19 -68 -8 -16 -14 -39 -14
-53 0 -14 -4 -27 -9 -30 -8 -5 -21 -74 -22 -111 -1 -5 -5 -15 -11 -22 -11 -13
-46 -137 -55 -193 -3 -19 -9 -37 -14 -40 -5 -4 -11 -25 -14 -49 -3 -23 -12
-59 -21 -79 -8 -20 -17 -52 -21 -72 -3 -19 -6 -39 -7 -45 -1 -5 -7 -20 -14
-32 -7 -12 -12 -31 -12 -43 0 -12 -5 -31 -12 -43 -6 -12 -13 -40 -16 -62 -2
-22 -11 -52 -18 -67 -8 -15 -14 -36 -14 -48 0 -11 -5 -20 -11 -20 -6 0 -9 -9
-6 -20 3 -11 1 -20 -3 -20 -4 0 -6 -9 -3 -20 3 -11 1 -20 -4 -20 -10 0 -28
-69 -40 -150 -3 -19 -11 -47 -19 -61 -7 -15 -16 -40 -19 -55 -11 -60 -14 -74
-21 -86 -4 -6 -11 -28 -15 -47 -15 -72 -19 -85 -29 -95 -5 -5 -10 -27 -10 -47
0 -21 -4 -39 -9 -41 -5 -1 -12 -23 -16 -47 -3 -24 -14 -65 -24 -90 -10 -25
-16 -54 -13 -63 2 -10 -1 -18 -7 -18 -6 0 -11 -9 -11 -20 0 -12 -6 -33 -14
-48 -8 -15 -17 -44 -21 -65 -6 -33 -5 -37 13 -37 23 0 38 16 21 22 -8 3 -7 9
3 19 16 15 43 118 34 127 -3 2 1 11 9 19 8 8 15 29 15 48 0 18 5 35 10 37 6 2
15 32 21 68 7 36 15 67 19 70 6 5 27 83 50 185 4 22 13 41 19 43 6 2 9 8 5 13
-3 5 -1 24 5 42 5 17 19 66 31 107 12 41 26 89 32 105 5 17 18 68 27 115 10
47 22 94 28 105 15 28 33 88 33 109 0 9 5 27 12 39 13 24 13 23 23 87 3 25 11
47 16 48 5 2 9 21 9 42 0 21 5 40 11 42 5 2 12 19 15 38 10 70 12 78 27 106 8
16 17 47 20 69 3 22 10 55 16 73 6 17 16 47 22 65 6 17 15 54 21 82 5 27 15
59 20 70 10 18 34 121 43 184 2 13 8 27 13 30 8 6 14 22 28 89 3 15 12 41 19
57 7 17 16 49 19 73 3 23 11 52 17 64 7 12 12 35 11 50 0 15 3 28 8 28 4 0 10
12 13 28 16 76 24 110 33 123 4 8 9 21 11 29 11 83 15 100 23 100 4 0 10 17
13 38 11 71 19 102 28 102 5 0 9 18 9 40 0 22 4 40 9 40 10 0 21 42 27 97 1
18 10 43 18 56 9 13 13 26 10 30 -4 3 0 21 9 39 8 18 18 56 22 83 4 28 11 53
16 56 5 3 14 34 21 70 6 35 17 73 24 84 6 11 15 39 18 63 3 23 10 51 16 61 5
11 10 31 10 45 0 14 4 27 9 30 8 5 12 20 27 105 3 13 10 33 16 44 5 11 12 34
15 51 3 17 11 49 19 71 7 22 14 52 14 67 0 14 5 28 11 30 5 2 12 19 15 38 10
67 13 80 20 91 3 6 9 28 11 48 3 20 9 38 14 39 5 2 9 14 9 27 0 13 6 30 13 37
8 8 11 23 7 38 -4 15 -1 30 7 38 6 7 17 40 24 73 6 32 16 62 20 65 5 3 9 15 9
28 0 12 6 31 14 41 9 13 11 27 5 42 -6 16 -4 25 5 30 7 4 16 24 19 43 8 50 42
172 54 195 6 11 14 43 17 70 4 28 11 54 17 59 5 6 9 21 9 33 0 13 6 36 14 51
7 15 16 46 20 70 3 23 11 52 17 64 10 19 20 55 48 179 4 19 12 42 17 50 4 8
10 23 11 34 2 11 5 32 7 46 2 14 9 36 15 47 22 42 9 96 -17 70z"/>
<path d="M230 7680 c-25 -3 -45 -9 -46 -15 0 -5 -7 -35 -16 -65 -9 -30 -24
-93 -34 -139 -17 -81 -17 -84 1 -97 13 -10 49 -14 117 -14 93 0 98 -1 98 -21
0 -18 -17 -92 -65 -289 -9 -36 -67 -236 -72 -250 -4 -8 -7 -17 -8 -20 -22 -87
-29 -118 -26 -129 1 -8 -2 -17 -7 -20 -9 -5 -22 -51 -57 -194 -2 -10 -7 -27
-10 -37 -3 -10 -8 -27 -10 -39 -6 -34 -45 -172 -70 -251 -13 -41 -23 -87 -22
-102 l2 -28 215 0 c118 0 225 3 237 6 11 3 24 16 28 27 35 115 129 462 125
462 -1 0 8 24 19 53 11 28 19 52 17 52 -3 0 0 15 5 33 6 17 12 41 14 52 15 67
179 681 184 687 3 4 61 8 127 9 69 1 128 7 137 14 20 15 41 68 62 156 29 126
29 146 3 156 -24 9 -872 11 -948 3z"/>
<path d="M9179 7672 l-95 -3 -28 -102 c-16 -56 -36 -127 -46 -157 l-17 -55
-125 -3 -124 -3 -17 -67 c-10 -37 -19 -74 -21 -82 -2 -8 -9 -35 -16 -60 -7
-25 -12 -47 -13 -50 0 -3 -8 -31 -18 -63 -17 -55 -17 -58 1 -67 10 -6 56 -10
102 -10 46 0 89 -4 96 -9 16 -10 15 -19 -53 -280 -26 -97 -55 -205 -66 -241
-11 -36 -21 -76 -24 -88 -2 -12 -6 -26 -9 -30 -3 -5 -7 -19 -9 -33 -3 -13 -13
-53 -22 -89 -21 -79 -28 -113 -41 -181 -4 -24 33 -29 192 -24 159 5 162 5 196
27 28 19 61 112 123 353 20 77 39 147 42 155 3 8 8 24 10 35 2 11 12 49 22 85
10 36 34 122 52 193 31 120 35 127 59 128 14 0 77 2 140 4 l114 3 8 29 c69
244 89 336 78 347 -13 13 -29 15 -130 17 -103 2 -123 10 -114 47 4 15 11 31
15 37 5 5 9 17 9 26 0 9 9 45 21 80 11 35 21 79 22 98 l2 34 -110 1 c-60 0
-153 0 -206 -2z"/>
<path d="M8083 7372 l-343 -2 0 -36 c0 -20 -11 -68 -25 -107 -22 -66 -90 -318
-101 -377 -2 -14 -9 -36 -14 -50 -8 -22 -35 -124 -45 -170 -2 -8 -10 -44 -19
-80 -9 -36 -16 -80 -16 -98 0 -18 -9 -45 -20 -60 -18 -25 -58 -161 -92 -308
-16 -70 -7 -104 26 -105 86 -3 356 7 362 14 5 5 91 312 99 352 2 11 4 20 5 20
2 0 4 10 13 50 3 11 23 83 45 160 35 121 77 267 86 300 2 6 6 24 10 40 18 73
42 115 65 115 17 0 13 -37 -14 -135 -25 -90 -75 -275 -100 -370 -7 -27 -36
-140 -65 -250 -28 -110 -53 -209 -55 -220 -2 -11 -7 -32 -10 -48 l-5 -27 172
4 c183 5 226 9 238 23 12 12 146 483 196 683 2 8 8 32 14 53 5 20 15 54 20 75
6 20 12 44 14 52 2 8 12 44 21 80 9 36 18 70 19 75 1 6 5 16 10 23 4 7 6 16 3
19 -3 3 -1 17 5 32 5 14 12 35 14 46 2 11 7 34 10 50 18 81 -21 174 -74 176
-15 0 -45 1 -67 2 -22 1 -194 1 -382 -1z"/>
<path d="M1327 7364 c-1 -1 -35 -4 -76 -8 -76 -6 -94 -15 -135 -65 -43 -52
-96 -190 -136 -351 -10 -41 -33 -127 -50 -190 -17 -63 -33 -122 -35 -130 -2
-8 -4 -15 -5 -15 -1 0 -3 -10 -6 -23 -2 -12 -17 -68 -34 -124 -16 -55 -30
-109 -30 -120 0 -10 -7 -33 -16 -49 -19 -37 -22 -206 -4 -248 8 -20 27 -36 58
-50 44 -19 66 -20 376 -20 383 0 365 -5 397 98 22 68 47 161 53 196 2 11 7 34
10 52 5 25 2 34 -12 42 -9 5 -85 10 -167 11 -130 2 -174 3 -267 9 -13 1 -15 8
-11 32 4 27 46 199 84 344 6 22 12 45 13 50 2 6 6 24 10 40 8 32 54 167 58
171 2 1 15 5 31 9 20 6 27 4 27 -8 0 -8 -3 -17 -8 -19 -4 -1 -26 -77 -49 -168
-22 -91 -49 -192 -58 -225 -9 -33 -18 -67 -20 -75 -2 -8 -6 -27 -10 -42 -6
-23 -4 -28 11 -29 110 -4 397 -4 403 1 5 3 19 43 31 90 11 47 27 102 35 123 8
20 13 37 10 37 -2 0 3 24 12 53 8 28 16 57 18 62 1 6 7 30 14 55 7 25 15 54
17 65 2 11 18 70 35 130 42 147 42 229 2 270 -23 22 -25 23 -298 22 -151 0
-276 -1 -278 -3z"/>
<path d="M2126 7360 l-59 -5 -36 -145 c-20 -80 -39 -149 -43 -155 -3 -5 -9
-27 -12 -48 -3 -21 -18 -74 -32 -118 -14 -44 -24 -89 -21 -100 3 -10 1 -19 -3
-19 -5 0 -12 -10 -16 -22 -12 -36 -84 -310 -89 -339 -2 -14 -11 -46 -19 -70
-12 -38 -23 -77 -31 -114 -12 -50 -37 -143 -42 -155 -8 -19 -14 -50 -16 -75
-2 -19 4 -20 196 -20 196 0 198 0 216 23 9 13 23 45 31 70 7 26 14 52 16 57
12 38 32 130 29 133 -2 3 2 11 10 19 8 8 15 30 15 49 0 19 5 34 10 34 6 0 10
18 10 40 0 22 5 40 10 40 6 0 10 11 10 24 0 14 4 27 9 30 5 3 11 23 14 43 3
21 11 58 17 83 6 25 14 61 17 80 3 19 9 40 12 45 7 10 19 48 39 130 35 135 44
156 66 153 21 -3 22 -9 14 -70 -1 -10 -5 -18 -9 -18 -4 0 -5 -9 -2 -20 3 -11
0 -20 -6 -20 -6 0 -11 -14 -11 -31 0 -17 -5 -39 -11 -51 -6 -11 -13 -32 -15
-46 -11 -65 -17 -87 -27 -94 -6 -4 -10 -23 -9 -42 2 -20 -2 -36 -7 -36 -7 0
-21 -42 -26 -85 -6 -40 -20 -97 -35 -135 -9 -25 -15 -51 -12 -59 2 -7 -1 -17
-7 -20 -7 -4 -14 -21 -16 -37 -9 -51 -37 -168 -46 -184 -4 -9 -10 -34 -14 -57
-4 -33 -2 -42 12 -47 27 -11 334 -5 366 7 28 9 59 62 72 120 2 12 18 72 35
132 26 93 83 305 94 355 2 8 10 35 17 60 7 25 13 50 15 56 4 22 66 249 72 264
7 20 6 17 22 85 44 194 46 243 11 278 -10 11 -39 23 -65 28 -47 9 -614 8 -720
-1z"/>
<path d="M3115 7360 c-11 -4 -23 -6 -26 -4 -12 7 -26 -20 -32 -56 -3 -19 -12
-54 -21 -77 -8 -22 -17 -52 -20 -65 -3 -12 -7 -33 -10 -45 -4 -13 -8 -31 -10
-40 -2 -10 -16 -63 -31 -118 -14 -55 -40 -156 -58 -225 -18 -69 -34 -127 -37
-130 -5 -4 -61 -215 -75 -280 -2 -8 -4 -15 -5 -15 -1 0 -3 -7 -5 -15 -2 -8
-13 -51 -24 -95 -43 -160 -47 -201 -24 -213 14 -7 252 -9 379 -3 7 1 15 13 19
29 5 15 9 32 11 37 38 128 64 231 71 278 3 20 9 37 13 37 4 0 10 12 13 28 3
15 11 46 16 70 6 23 16 61 22 85 5 23 13 54 16 70 3 15 9 27 14 27 5 0 9 18 9
39 0 22 5 41 11 43 5 2 11 19 11 38 1 19 7 44 14 55 7 11 15 43 19 70 3 28 10
52 16 53 5 2 9 16 9 32 0 42 10 60 31 60 27 0 35 -27 20 -64 -7 -17 -21 -71
-32 -119 -10 -48 -23 -96 -29 -107 -5 -10 -10 -30 -10 -44 0 -14 -4 -28 -10
-31 -5 -3 -10 -18 -10 -33 0 -15 -9 -52 -20 -82 -11 -30 -20 -64 -20 -75 0
-12 -5 -26 -11 -32 -6 -6 -11 -28 -11 -48 0 -20 -5 -38 -11 -41 -7 -2 -13 -25
-15 -50 -1 -25 -9 -58 -16 -72 -8 -15 -16 -41 -19 -58 -3 -17 -9 -40 -15 -50
-17 -32 -25 -110 -13 -132 9 -17 22 -20 101 -21 57 -1 90 2 90 8 0 6 9 11 20
11 11 0 20 -4 20 -10 0 -17 146 -12 164 5 14 15 35 72 43 120 1 11 10 38 18
60 8 22 39 137 69 255 30 118 76 289 101 380 25 91 48 172 50 181 2 8 11 40
20 70 9 30 19 63 20 74 2 11 7 34 11 50 10 50 8 110 -7 140 -23 47 -74 53
-457 53 -186 0 -346 -4 -357 -8z"/>
<path d="M4079 7368 c0 -2 -2 -10 -4 -18 -1 -8 -8 -35 -15 -60 -7 -25 -14 -55
-16 -67 -2 -12 -8 -33 -13 -45 -5 -13 -10 -27 -11 -33 -2 -5 -7 -20 -13 -32
-25 -55 3 -63 238 -63 l173 0 12 48 c7 26 14 52 15 57 2 6 10 37 19 70 18 66
24 89 30 123 l5 22 -210 0 c-115 0 -209 -1 -210 -2z"/>
<path d="M4687 7357 c-71 -22 -101 -66 -151 -223 -15 -45 -28 -90 -31 -100 -2
-11 -13 -55 -25 -99 -37 -134 -40 -147 -60 -244 -14 -67 -17 -98 -10 -105 7
-7 92 -12 228 -14 119 -2 218 -5 219 -6 4 -4 -38 -199 -47 -216 -12 -23 -47
-43 -59 -36 -4 3 -2 29 6 58 7 29 16 69 19 88 3 19 8 38 11 43 2 4 -92 7 -209
7 l-214 0 -22 -87 c-13 -49 -32 -126 -42 -173 -11 -47 -24 -93 -30 -102 -26
-45 11 -148 60 -168 29 -12 632 -9 678 3 50 13 98 43 118 74 32 48 122 331
169 530 3 10 9 34 14 53 30 109 31 111 8 119 -11 4 -113 9 -226 10 -113 1
-209 5 -213 7 -4 3 -3 14 2 25 6 10 9 19 6 19 -2 0 1 19 6 43 12 52 19 86 23
112 6 42 17 55 47 55 17 0 27 -4 23 -10 -7 -12 -10 -27 -19 -94 -4 -27 -8 -54
-9 -60 -2 -10 116 -12 374 -7 36 1 37 2 53 64 16 58 26 99 30 122 1 6 5 16 9
23 5 6 6 12 3 12 -3 0 -1 11 4 25 5 14 12 36 14 48 2 12 9 42 15 67 19 81 15
115 -16 131 -37 18 -698 24 -756 6z"/>
<path d="M5929 7366 c-2 -3 -16 -6 -29 -8 -33 -5 -71 -26 -92 -52 -10 -12 -22
-26 -27 -32 -11 -14 -85 -243 -97 -300 -1 -6 -10 -38 -19 -70 -9 -33 -18 -66
-20 -74 -2 -8 -23 -89 -48 -180 -25 -91 -48 -181 -53 -200 -4 -19 -9 -39 -10
-45 -2 -5 -14 -63 -28 -129 -22 -103 -24 -137 -17 -233 2 -19 55 -52 97 -60
40 -8 554 -11 634 -4 78 7 78 7 121 151 13 41 24 80 25 85 1 6 16 64 33 130
44 167 46 182 24 194 -10 5 -105 10 -210 11 l-191 1 -17 -69 c-18 -77 -49
-136 -68 -129 -14 4 -16 24 -5 55 4 12 10 33 12 45 3 12 13 49 22 82 9 33 17
67 19 75 2 8 21 80 43 160 45 163 79 260 92 260 25 0 16 -90 -20 -196 -11 -32
-20 -59 -20 -61 0 -7 418 0 430 7 10 6 105 348 116 420 10 61 11 120 2 120 -4
0 -8 6 -8 14 0 23 -111 33 -405 35 -155 1 -283 -1 -286 -3z"/>
<path d="M6882 7356 c-50 -18 -101 -73 -138 -151 -29 -61 -103 -304 -118 -390
-3 -16 -11 -46 -16 -65 -6 -19 -13 -46 -16 -60 -3 -14 -20 -70 -39 -125 -19
-55 -37 -116 -40 -135 -3 -19 -8 -42 -10 -50 -2 -8 -7 -49 -10 -91 -4 -41 -8
-84 -10 -95 -2 -10 -4 -23 -4 -27 -1 -5 -5 -6 -10 -2 -16 9 -6 -97 12 -131 31
-60 23 -59 351 -59 372 1 391 2 427 32 23 20 63 108 75 168 1 6 7 30 13 55 12
48 17 68 27 113 l6 27 -241 0 c-143 0 -241 4 -241 9 0 17 31 144 66 271 19 69
37 132 39 140 39 170 66 240 90 240 20 0 28 -40 16 -73 -6 -15 -8 -27 -6 -27
2 0 0 -11 -5 -25 -9 -24 -13 -38 -25 -102 -3 -16 -11 -46 -17 -68 -6 -22 -12
-44 -14 -50 -1 -5 -12 -44 -24 -85 -11 -41 -23 -83 -25 -93 -2 -9 -7 -22 -10
-27 -13 -21 51 -29 236 -27 l193 2 8 35 c4 19 10 46 13 60 7 34 79 311 100
385 60 212 75 322 51 379 -10 24 -22 34 -54 42 -58 16 -606 16 -650 0z"/>
<path d="M9843 7318 c-28 -30 -58 -68 -67 -85 -30 -60 -85 -225 -131 -398 -15
-55 -31 -116 -36 -135 -5 -19 -11 -42 -13 -51 -2 -8 -11 -38 -19 -65 -8 -27
-15 -52 -16 -56 0 -5 -1 -9 -2 -10 0 -2 -2 -10 -4 -18 -1 -8 -15 -60 -29 -115
-44 -166 -51 -214 -42 -287 8 -66 38 -104 86 -114 56 -10 599 -14 660 -4 30 5
60 17 67 25 12 18 39 95 46 135 3 14 12 49 20 78 9 28 14 52 12 52 -2 0 2 15
10 32 26 63 18 66 -192 68 -104 0 -197 3 -208 5 -11 2 -27 4 -36 4 -9 1 -20 8
-23 17 -6 15 6 76 21 114 3 8 7 22 9 30 13 66 116 427 130 455 17 37 38 45 48
20 6 -17 -14 -124 -40 -215 -9 -30 -17 -62 -19 -70 -2 -8 -13 -53 -25 -100
-12 -47 -23 -92 -25 -100 -2 -8 -8 -30 -14 -48 l-10 -32 216 2 c183 3 217 5
219 18 10 51 81 331 131 510 50 182 61 281 39 334 -13 31 -20 35 -68 43 -29 5
-186 10 -348 12 l-296 2 -51 -53z"/>
<path d="M10885 7362 c-3 -3 -14 -6 -24 -7 -32 -2 -88 -47 -106 -85 -22 -45
-69 -190 -91 -280 -2 -8 -24 -91 -49 -185 -25 -93 -47 -179 -49 -190 -3 -11
-5 -20 -6 -20 -1 0 -3 -10 -5 -21 -4 -19 -96 -361 -141 -523 -11 -37 -12 -57
-5 -64 18 -18 393 -9 412 10 4 4 15 35 24 68 46 174 67 251 70 265 2 8 13 51
25 95 33 121 40 148 45 167 2 9 15 61 30 115 15 54 29 107 31 118 21 85 57
191 69 204 7 7 18 10 24 7 17 -11 13 -64 -13 -159 -24 -84 -24 -87 -6 -97 19
-10 399 -11 401 -1 0 3 2 13 4 21 2 8 7 28 10 43 14 67 83 315 94 335 6 11 11
55 11 96 0 62 -3 77 -18 85 -18 10 -727 12 -737 3z"/>
<path d="M3950 6908 c-6 -35 -28 -124 -47 -198 -20 -74 -42 -162 -50 -194 -8
-33 -21 -72 -29 -88 -8 -15 -12 -28 -10 -28 3 0 -2 -21 -10 -47 -25 -84 -75
-296 -77 -332 -2 -30 2 -35 28 -43 33 -9 291 -8 339 1 16 4 33 13 37 21 21 41
38 89 43 120 3 19 10 51 16 70 6 19 14 49 17 65 3 17 9 38 14 48 5 9 7 17 5
17 -3 0 -1 12 5 28 6 15 12 34 14 42 2 8 10 42 19 75 9 33 19 67 21 75 2 8 22
85 46 170 65 240 65 240 48 251 -8 5 -105 9 -215 9 l-201 0 -13 -62z"/>
<path d="M3898 5854 c-2 -1 -61 -4 -133 -7 -135 -6 -166 -10 -225 -29 -19 -6
-36 -11 -37 -10 -2 1 -47 -21 -100 -49 -143 -74 -212 -131 -303 -249 -19 -25
-38 -46 -42 -48 -5 -2 -8 -9 -8 -15 0 -6 -6 -18 -14 -26 -16 -19 -87 -151 -81
-151 3 0 0 -11 -5 -25 -14 -36 -4 -52 41 -63 47 -12 193 -8 269 7 107 22 234
72 315 125 105 69 233 194 281 274 10 18 22 32 25 32 4 0 11 9 14 21 4 11 16
42 28 67 11 26 22 52 23 57 1 6 4 22 7 37 3 15 8 32 12 38 3 5 3 10 -2 11 -31
4 -63 6 -65 3z"/>
<path d="M5372 5788 c-12 -49 -52 -197 -76 -278 -9 -30 -16 -58 -17 -62 0 -4
-5 -22 -10 -40 -13 -41 -60 -208 -64 -228 -2 -8 -4 -15 -5 -15 -1 0 -3 -7 -5
-15 -3 -16 -43 -164 -70 -265 -9 -33 -18 -67 -20 -75 -2 -8 -4 -15 -5 -15 -1
0 -3 -9 -5 -20 -2 -11 -15 -65 -30 -120 -15 -55 -29 -111 -32 -124 -2 -14 -6
-28 -9 -33 -3 -4 -7 -16 -9 -25 -2 -10 -17 -72 -33 -138 -46 -180 -46 -181
-25 -191 10 -4 217 -10 460 -12 l442 -4 35 49 c95 129 165 349 160 503 -3 114
-20 163 -78 225 -56 61 -60 70 -31 89 13 9 27 16 30 16 17 0 91 64 140 121 64
75 121 233 161 449 13 66 13 158 2 180 -31 58 -59 62 -509 67 l-387 5 -10 -44z
m400 -313 c-4 -42 -41 -185 -55 -215 -14 -29 -42 -38 -50 -16 -3 8 -1 31 4 52
6 20 12 44 14 53 8 43 29 109 42 134 19 38 49 33 45 -8z m-181 -622 c3 -39 -2
-81 -17 -143 -3 -14 -7 -32 -8 -40 -7 -52 -60 -219 -76 -240 -15 -19 -21 -22
-33 -12 -11 10 -12 22 -5 60 5 26 12 61 15 77 7 41 61 210 85 268 21 48 37 60
39 30z"/>
<path d="M8488 5823 c-15 -4 -41 -70 -54 -138 -2 -11 -15 -60 -29 -110 -14
-49 -28 -101 -31 -115 -3 -14 -17 -65 -31 -114 -14 -48 -26 -93 -27 -100 -1
-6 -5 -17 -9 -23 -5 -7 -6 -13 -3 -13 3 0 -2 -23 -10 -52 -9 -28 -17 -59 -19
-67 -2 -9 -11 -43 -20 -76 -9 -33 -19 -69 -21 -80 -2 -11 -11 -47 -19 -80 -9
-33 -18 -73 -21 -90 -3 -16 -10 -38 -15 -47 -5 -10 -7 -18 -3 -18 3 0 1 -7 -6
-15 -7 -8 -10 -15 -6 -15 4 0 0 -13 -8 -29 -8 -15 -29 -84 -46 -152 -37 -146
-62 -242 -87 -330 -7 -23 31 -28 229 -29 l167 -1 10 38 c36 143 42 170 46 183
7 30 54 206 69 258 8 29 15 56 15 60 1 4 8 30 15 57 8 28 17 61 20 75 5 26 46
175 75 270 14 48 19 55 41 55 31 0 31 -8 2 -115 -12 -47 -25 -96 -28 -110 -2
-14 -9 -39 -15 -56 -5 -17 -12 -41 -14 -53 -7 -30 -9 -38 -55 -206 -45 -166
-48 -177 -56 -219 -2 -16 -7 -33 -10 -38 -3 -4 -7 -16 -9 -25 -1 -10 -11 -48
-21 -85 -10 -37 -15 -71 -10 -75 4 -4 94 -9 201 -10 l194 -4 11 43 c6 24 13
50 15 58 3 8 5 18 6 22 0 4 5 22 10 40 9 28 56 203 64 233 1 6 5 17 8 25 3 8
12 42 20 75 8 33 27 105 42 160 15 55 57 216 94 358 l66 258 -21 37 c-40 68
-57 75 -204 79 -178 4 -200 9 -200 42 0 9 11 55 24 101 14 47 27 97 29 111 10
51 1 54 -180 55 -92 0 -176 -1 -185 -3z"/>
<path d="M4185 5707 c-14 -24 -25 -49 -25 -55 0 -5 -3 -12 -7 -14 -5 -1 -21
-30 -37 -63 -70 -141 -192 -297 -309 -393 -131 -107 -371 -215 -511 -230 -34
-3 -136 -6 -228 -6 l-167 -1 4 -30 c2 -16 7 -51 10 -76 6 -49 29 -138 47 -179
6 -14 16 -36 22 -50 88 -203 292 -391 516 -475 45 -17 61 -21 110 -31 14 -2
32 -7 40 -11 8 -3 65 -7 126 -8 94 -3 126 1 200 22 187 52 282 102 408 214 64
56 164 178 175 212 2 7 7 14 11 17 6 5 50 95 50 105 1 2 7 20 15 39 8 19 18
59 22 88 10 67 9 350 -1 403 -9 48 -110 259 -136 285 -3 3 -17 21 -32 42 -57
76 -188 193 -255 227 -20 10 -24 7 -48 -32z"/>
<path d="M6402 5503 c-8 -23 -27 -94 -56 -215 -3 -9 -16 -61 -31 -115 -15 -54
-28 -106 -30 -116 -2 -10 -9 -32 -15 -50 -11 -34 -82 -293 -107 -392 -21 -84
-21 -84 -37 -142 -8 -29 -12 -53 -10 -53 3 0 0 -8 -5 -18 -25 -47 -35 -222
-14 -243 21 -21 108 -26 452 -25 l334 1 32 45 c27 38 74 145 90 203 2 4 3 8 5
10 1 1 3 9 5 17 2 8 24 89 50 180 25 91 48 176 51 190 3 14 12 50 20 80 8 30
16 60 17 65 13 51 60 233 65 245 7 18 1 -3 46 179 28 114 35 156 26 165 -7 7
-74 11 -208 11 l-197 0 -28 -110 c-16 -60 -30 -117 -32 -125 -2 -8 -8 -35 -14
-60 -19 -75 -21 -84 -27 -115 -9 -50 -22 -98 -39 -145 -23 -61 -71 -233 -101
-360 -34 -143 -33 -140 -54 -140 -31 0 -32 18 -6 120 3 8 9 33 15 55 5 22 26
103 46 180 19 77 37 155 38 172 1 18 4 33 7 33 3 0 11 10 19 23 13 20 13 21
-2 8 -22 -18 -23 1 -1 34 9 13 24 55 34 92 10 37 26 95 35 128 10 33 19 67 20
75 2 8 8 29 13 45 12 39 7 66 -13 81 -11 9 -75 13 -200 14 l-182 1 -11 -28z"/>
<path d="M7540 5517 c-117 -20 -143 -61 -224 -350 -20 -70 -38 -138 -40 -150
-3 -12 -5 -23 -7 -24 -1 -2 -2 -6 -3 -10 -1 -5 -7 -24 -13 -43 -11 -36 -94
-347 -97 -365 -1 -5 -5 -16 -10 -23 -4 -7 -6 -16 -3 -19 3 -3 2 -16 -4 -30 -5
-13 -11 -36 -14 -51 -3 -15 -7 -38 -10 -52 -10 -44 -15 -134 -9 -166 8 -42 41
-78 86 -91 25 -7 155 -11 384 -10 300 2 347 4 350 17 1 8 7 30 13 48 5 17 8
32 5 32 -3 0 0 8 5 18 6 11 12 30 14 43 5 28 45 165 54 189 3 8 5 19 4 23 0 4
3 16 8 25 9 17 17 52 27 127 l5 40 -210 -3 -211 -3 -15 -57 c-22 -81 -45 -122
-67 -122 -26 0 -22 18 86 395 1 6 6 26 10 45 5 19 13 41 18 48 6 6 8 12 5 12
-6 0 36 131 49 151 4 8 9 7 15 -2 9 -15 6 -49 -11 -138 -19 -102 -39 -93 199
-90 l209 2 21 86 c12 47 24 97 27 111 2 14 9 36 14 50 21 56 53 208 53 253 0
39 -4 51 -24 65 -13 9 -31 19 -39 21 -31 9 -597 7 -650 -2z"/>
<path d="M9518 5524 c-2 -1 -16 -4 -33 -7 -103 -17 -148 -68 -179 -203 -8 -40
-24 -92 -35 -117 -11 -25 -17 -48 -14 -50 3 -3 1 -12 -3 -19 -9 -14 -9 -15
-19 -73 -4 -22 -9 -43 -12 -48 -2 -4 -6 -19 -9 -33 -3 -14 -16 -60 -30 -102
-30 -94 -26 -127 18 -136 17 -3 104 -6 194 -6 106 0 172 -4 190 -12 24 -11 26
-16 21 -58 -13 -105 -59 -198 -92 -187 -11 5 -11 11 8 87 15 64 13 86 -11 92
-28 8 -376 -2 -384 -10 -7 -7 -20 -52 -43 -142 -3 -8 -11 -40 -19 -70 -47
-173 -45 -270 6 -286 37 -11 611 -3 678 10 120 23 154 61 203 229 39 131 89
310 101 365 2 9 10 37 17 62 7 25 14 51 15 59 2 8 5 25 9 38 l5 23 -198 0
c-122 0 -212 4 -231 11 -31 11 -32 14 -28 53 7 53 24 112 48 159 20 38 38 48
40 22 1 -8 2 -21 3 -27 1 -7 -3 -45 -9 -85 l-11 -72 198 4 c109 2 202 6 207 9
7 5 23 55 36 116 2 8 13 50 25 92 11 43 23 85 25 95 2 10 10 45 17 78 18 78
14 97 -25 121 -30 18 -54 19 -354 20 -178 0 -324 0 -325 -2z"/>
</g>
</svg>
